<svg xmlns="http://www.w3.org/2000/svg" viewBox="0 0 1280 300" role="img" aria-labelledby="title desc">
<title id="title">Aegiscope privacy evidence flow</title>
<desc id="desc">Conceptual sequence from application behavior to explainable privacy evidence. Not live telemetry.</desc>
<defs><linearGradient id="line"><stop stop-color="#78d7cf"/><stop offset="1" stop-color="#8aa8ff"/></linearGradient><filter id="glow"><feGaussianBlur stdDeviation="6" result="b"/><feMerge><feMergeNode in="b"/><feMergeNode in="SourceGraphic"/></feMerge></filter></defs>
<rect width="1280" height="300" rx="28" fill="#10161d"/><path d="M145 151H1135" stroke="#34404c" stroke-width="2"/><path d="M145 151H1135" stroke="url(#line)" stroke-width="2" opacity=".72"/>
<g font-family="Segoe UI, Arial, sans-serif" text-anchor="middle">
<g transform="translate(145 151)"><circle r="38" fill="#1b2931" stroke="#78d7cf"/><circle r="7" fill="#78d7cf" filter="url(#glow)"/><text y="77" fill="#edf3f6" font-size="16">Application</text></g>
<g transform="translate(392 151)"><circle r="38" fill="#1b2931" stroke="#78d7cf"/><path d="M-12 -12h24v24h-24zM-7 -18h14" fill="none" stroke="#78d7cf" stroke-width="2"/><text y="77" fill="#edf3f6" font-size="16">Sensitive access</text></g>
<g transform="translate(639 151)"><circle r="38" fill="#1b2931" stroke="#8aa8ff"/><path d="M-15 6h30M-15 0h22M-15 -6h14" stroke="#8aa8ff" stroke-width="2" stroke-linecap="round"/><text y="77" fill="#edf3f6" font-size="16">Local processing</text></g>
<g transform="translate(886 151)"><circle r="38" fill="#1b2931" stroke="#8aa8ff"/><circle r="13" fill="none" stroke="#8aa8ff" stroke-width="2"/><path d="M-13 0h26M0 -13c8 8 8 18 0 26M0 -13c-8 8-8 18 0 26" fill="none" stroke="#8aa8ff" stroke-width="1.5"/><text y="77" fill="#edf3f6" font-size="16">Network activity</text></g>
<g transform="translate(1135 151)"><circle r="38" fill="#1b2931" stroke="#dfb878"/><path d="M-12 0l8 8 17-18" fill="none" stroke="#dfb878" stroke-width="3" stroke-linecap="round" stroke-linejoin="round"/><text y="77" fill="#edf3f6" font-size="16">Evidence</text></g>
</g><text x="640" y="264" fill="#8f9ca7" font-family="Segoe UI, Arial, sans-serif" font-size="12" text-anchor="middle" letter-spacing="2">CONCEPT ONLY · NOT LIVE PRODUCT TELEMETRY</text></svg>